<svg version="1.1" id="Layer_1" xmlns="http://www.w3.org/2000/svg" xmlns:xlink="http://www.w3.org/1999/xlink" x="0px" y="0px"
	 width="100%" viewBox="0 0 512 512" enable-background="new 0 0 512 512" xml:space="preserve">
<path fill="#000000" opacity="1.000000" stroke="none" 
	d="
M102.531342,1.000000 
	C105.767853,3.324646 109.424095,3.387302 112.595428,4.731052 
	C129.343811,11.827655 135.423218,28.093309 130.705765,44.538006 
	C128.420105,52.505615 126.174759,60.486130 123.760696,68.414993 
	C122.489113,72.591469 122.517334,75.183746 127.873268,76.586784 
	C143.296402,80.626991 156.671982,88.816460 167.837662,99.991142 
	C178.253952,110.415817 185.269089,123.348549 191.372482,136.717636 
	C200.817291,157.405899 208.699249,178.798080 219.399673,198.920609 
	C228.227936,215.522446 238.798187,230.858551 251.132324,245.118881 
	C272.978424,270.376678 300.078674,288.259857 329.890991,302.359955 
	C348.029877,310.938873 366.886627,317.921661 385.045105,326.507050 
	C412.778900,339.619751 431.208771,360.499237 439.320465,390.244873 
	C439.449341,390.717468 439.612915,391.182709 439.795837,391.637115 
	C439.851715,391.775787 440.026733,391.866486 440.371002,392.188477 
	C450.023682,390.533936 459.306244,386.833923 468.920776,384.391113 
	C480.252197,381.512115 491.139954,381.067108 501.237976,388.517120 
	C505.472382,391.641113 508.139709,395.639191 510.019897,400.327606 
	C511.068390,402.942200 511.859314,405.660156 512.883179,408.665771 
	C513.000000,417.354218 513.000000,425.708466 512.869751,434.900085 
	C511.940399,440.463440 511.339783,445.233337 510.306793,449.907623 
	C506.457733,467.324585 500.281982,483.524384 486.877380,496.208649 
	C476.062531,506.442322 460.445343,508.433441 448.070038,500.056671 
	C439.945404,494.557068 433.261108,487.291626 426.296234,480.411438 
	C424.802826,478.936157 423.656738,476.943604 421.138306,476.420685 
	C420.701172,476.800293 420.115356,477.147644 419.746246,477.653229 
	C410.861115,489.822693 399.451599,498.833099 385.975586,505.523315 
	C379.231659,508.871399 371.787048,509.951111 365.000000,513.000000 
	C351.979095,513.000000 338.958221,513.000000 325.224304,512.737671 
	C324.091797,512.206177 323.702240,511.774933 323.248505,511.691162 
	C296.966064,506.840454 272.861389,496.293732 250.035507,482.846710 
	C209.684113,459.075134 173.542480,429.710205 139.664581,397.556274 
	C120.387253,379.259918 102.340218,359.762787 85.215149,339.384216 
	C67.050705,317.768829 50.142635,295.286743 35.412296,271.207245 
	C22.286924,249.751343 11.497260,227.222443 4.985897,202.796753 
	C3.670360,197.861847 3.318410,192.663635 1.000000,188.000000 
	C1.000000,174.979111 1.000000,161.958206 1.303593,148.295593 
	C2.555954,147.002457 2.471283,145.948456 2.704980,144.988022 
	C6.937201,127.594711 15.517224,112.708267 28.426090,100.292702 
	C31.357628,97.473190 35.549294,95.925735 37.244030,91.717102 
	C29.993841,83.655800 22.573565,75.818085 15.633664,67.575897 
	C8.331100,58.902969 6.662590,48.891575 10.431824,38.161613 
	C14.622393,26.232227 24.121422,19.328018 34.465797,13.298159 
	C45.500759,6.865751 57.855289,4.233007 70.000000,1.000000 
	C80.687561,1.000000 91.375122,1.000000 102.531342,1.000000 
M99.180046,307.390289 
	C103.580826,312.771179 108.057098,318.101837 112.432678,323.488525 
	C124.280075,338.073578 137.275543,351.624023 150.488968,364.867493 
	C161.590134,375.993927 173.058258,386.841583 185.013489,397.156006 
	C203.863495,413.418976 223.293365,428.853882 243.968033,442.725952 
	C271.539520,461.225647 300.133942,477.359650 333.445862,483.275909 
	C347.243469,485.726410 360.472992,484.270538 373.389221,479.185791 
	C396.723999,469.999512 419.145081,436.569397 413.791870,407.991547 
	C409.887512,387.148590 400.523712,370.373566 382.199402,359.080353 
	C367.997772,350.327911 352.541748,344.171448 337.271240,337.733490 
	C310.875275,326.605225 285.406586,313.994720 262.661072,296.309326 
	C240.163284,278.816528 221.312393,257.995972 205.836716,234.175186 
	C190.477264,210.533295 180.354050,184.322586 169.541733,158.450226 
	C164.298538,145.904007 158.767914,133.219528 149.149368,123.341789 
	C128.175720,101.802940 98.611298,97.396461 72.067192,108.120560 
	C53.111366,115.778923 39.804111,129.321487 34.188435,149.504807 
	C30.509949,162.725662 31.243113,175.986588 34.035507,189.259720 
	C38.533714,210.641113 47.553497,230.189560 58.508713,248.881302 
	C70.426201,269.214844 83.738831,288.616608 99.180046,307.390289 
M98.973190,29.355196 
	C90.186737,27.062622 81.538467,28.547323 72.922546,30.378441 
	C62.321835,32.631378 52.083168,35.841019 43.209812,42.371727 
	C40.760517,44.174389 37.871037,46.243382 40.824207,49.565269 
	C48.314522,57.990780 56.072857,66.177429 63.651905,74.525063 
	C65.604767,76.675964 67.755859,77.073059 70.386215,76.174210 
	C75.879951,74.296883 81.406380,72.757698 87.289078,72.321320 
	C89.675560,72.144287 92.969048,72.324234 93.921936,68.382576 
	C96.606613,57.277172 99.671379,46.264153 102.502090,35.193184 
	C103.145248,32.677784 102.483536,30.553209 98.973190,29.355196 
M483.666504,413.944031 
	C482.257935,412.479340 480.588379,412.117981 478.654572,412.688171 
	C467.583618,415.952667 456.515320,419.226440 445.429993,422.441528 
	C442.849487,423.189972 441.371735,424.824158 441.423676,427.438416 
	C441.544128,433.498749 439.983582,439.258575 438.308563,444.955353 
	C437.377045,448.123413 438.108887,450.225769 440.483093,452.319672 
	C447.559906,458.560913 454.587494,464.862152 461.497742,471.286804 
	C467.381775,476.757324 468.861664,476.753784 473.389954,470.106415 
	C479.672058,460.884613 482.836914,450.456146 484.655945,439.586243 
	C486.055023,431.225739 486.783783,422.833435 483.666504,413.944031 
z"/>
</svg>